<svg xmlns="http://www.w3.org/2000/svg" style="display:none" aria-hidden="true">
  <defs>
    <!-- Line icons: 24px grid, stroke = currentColor. Sized by CSS (.icon-inline / .icon). -->
    <symbol id="icon-arrow-right" viewBox="0 0 24 24" fill="none" stroke="currentColor" stroke-width="1.9" stroke-linecap="round" stroke-linejoin="round"><path d="M4 12h16"/><path d="m13 5 7 7-7 7"/></symbol>
    <symbol id="icon-chevron-right" viewBox="0 0 24 24" fill="none" stroke="currentColor" stroke-width="1.9" stroke-linecap="round" stroke-linejoin="round"><path d="m9 5 7 7-7 7"/></symbol>
    <symbol id="icon-chevron-left" viewBox="0 0 24 24" fill="none" stroke="currentColor" stroke-width="1.9" stroke-linecap="round" stroke-linejoin="round"><path d="m15 5-7 7 7 7"/></symbol>
    <symbol id="icon-chevron-up" viewBox="0 0 24 24" fill="none" stroke="currentColor" stroke-width="1.9" stroke-linecap="round" stroke-linejoin="round"><path d="m5 15 7-7 7 7"/></symbol>
    <symbol id="icon-chevron-down" viewBox="0 0 24 24" fill="none" stroke="currentColor" stroke-width="1.9" stroke-linecap="round" stroke-linejoin="round"><path d="m5 9 7 7 7-7"/></symbol>
    <symbol id="icon-close" viewBox="0 0 24 24" fill="none" stroke="currentColor" stroke-width="1.9" stroke-linecap="round" stroke-linejoin="round"><path d="M6 6l12 12M18 6 6 18"/></symbol>
    <symbol id="icon-check" viewBox="0 0 24 24" fill="none" stroke="currentColor" stroke-width="2.2" stroke-linecap="round" stroke-linejoin="round"><path d="m4.5 12.5 5 5L20 7"/></symbol>
    <symbol id="icon-check-circle" viewBox="0 0 24 24" fill="none" stroke="currentColor" stroke-width="1.9" stroke-linecap="round" stroke-linejoin="round"><circle cx="12" cy="12" r="8.5"/><path d="m8.3 12.3 2.6 2.6 4.9-5.3"/></symbol>
    <symbol id="icon-edit" viewBox="0 0 24 24" fill="none" stroke="currentColor" stroke-width="1.9" stroke-linecap="round" stroke-linejoin="round"><path d="M4 20h4L20 8l-4-4L4 16v4z"/><path d="M13.5 6.5l4 4"/></symbol>
    <symbol id="icon-delete" viewBox="0 0 24 24" fill="none" stroke="currentColor" stroke-width="1.9" stroke-linecap="round" stroke-linejoin="round"><path d="M4 7h16"/><path d="M6 7l1 13a2 2 0 0 0 2 2h6a2 2 0 0 0 2-2l1-13"/><path d="M9 7V4a1 1 0 0 1 1-1h4a1 1 0 0 1 1 1v3"/></symbol>
    <symbol id="icon-revert" viewBox="0 0 24 24" fill="none" stroke="currentColor" stroke-width="1.9" stroke-linecap="round" stroke-linejoin="round"><path d="M4 12a8 8 0 1 0 3-6.2"/><path d="M4 4v4h4"/></symbol>
    <symbol id="icon-reset" viewBox="0 0 24 24" fill="none" stroke="currentColor" stroke-width="1.9" stroke-linecap="round" stroke-linejoin="round"><path d="M20 12a8 8 0 1 1-2.34-5.66"/><path d="M20 4v5h-5"/></symbol>
    <symbol id="icon-add" viewBox="0 0 24 24" fill="none" stroke="currentColor" stroke-width="2.1" stroke-linecap="round"><path d="M12 5v14M5 12h14"/></symbol>
    <symbol id="icon-minus" viewBox="0 0 24 24" fill="none" stroke="currentColor" stroke-width="2.1" stroke-linecap="round"><path d="M5 12h14"/></symbol>
    <symbol id="icon-search" viewBox="0 0 24 24" fill="none" stroke="currentColor" stroke-width="1.9" stroke-linecap="round" stroke-linejoin="round"><circle cx="10.5" cy="10.5" r="6.5"/><path d="m20 20-4.7-4.7"/></symbol>
    <symbol id="icon-mic" viewBox="0 0 24 24" fill="none" stroke="currentColor" stroke-width="1.9" stroke-linecap="round" stroke-linejoin="round"><rect x="9" y="3" width="6" height="11" rx="3"/><path d="M5.5 11a6.5 6.5 0 0 0 13 0"/><path d="M12 17.5V21M8.5 21h7"/></symbol>
    <symbol id="icon-warning" viewBox="0 0 24 24" fill="none" stroke="currentColor" stroke-width="1.9" stroke-linecap="round" stroke-linejoin="round"><path d="M12 3.5 2.5 20h19z"/><path d="M12 10v4.5"/><circle cx="12" cy="17.3" r=".7" fill="currentColor" stroke="none"/></symbol>
    <symbol id="icon-star" viewBox="0 0 24 24" fill="none" stroke="currentColor" stroke-width="1.8" stroke-linejoin="round"><path d="m12 3.3 2.65 5.5 6 .87-4.35 4.2 1.03 6-5.33-2.86-5.33 2.86 1.03-6-4.35-4.2 6-.87z"/></symbol>
    <symbol id="icon-star-filled" viewBox="0 0 24 24" fill="currentColor" stroke="currentColor" stroke-width="1.8" stroke-linejoin="round"><path d="m12 3.3 2.65 5.5 6 .87-4.35 4.2 1.03 6-5.33-2.86-5.33 2.86 1.03-6-4.35-4.2 6-.87z"/></symbol>
    <symbol id="icon-home" viewBox="0 0 24 24" fill="none" stroke="currentColor" stroke-width="1.9" stroke-linecap="round" stroke-linejoin="round"><path d="M3.5 10.3 12 3.5l8.5 6.8"/><path d="M5.5 9v11h4.7v-5.6h3.6V20h4.7V9"/></symbol>
    <symbol id="icon-book" viewBox="0 0 24 24" fill="none" stroke="currentColor" stroke-width="1.9" stroke-linecap="round" stroke-linejoin="round"><path d="M12 6.6C10.2 5.2 7.7 4.5 3.5 4.5v14c4.2 0 6.7.7 8.5 2 1.8-1.3 4.3-2 8.5-2v-14c-4.2 0-6.7.7-8.5 2.1z"/><path d="M12 6.6v13.9"/></symbol>
    <symbol id="icon-mala" viewBox="0 0 24 24" fill="none" stroke="currentColor" stroke-width="1.8" stroke-linecap="round" stroke-linejoin="round"><circle cx="12" cy="9.5" r="6"/><circle cx="12" cy="3.5" r="1.3" fill="currentColor"/><circle cx="18" cy="9.5" r="1.3" fill="currentColor"/><circle cx="6" cy="9.5" r="1.3" fill="currentColor"/><circle cx="16.2" cy="13.8" r="1.3" fill="currentColor"/><circle cx="7.8" cy="13.8" r="1.3" fill="currentColor"/><path d="M12 15.5v2.2M10.2 21.5 12 17.7l1.8 3.8"/></symbol>
    <symbol id="icon-calendar" viewBox="0 0 24 24" fill="none" stroke="currentColor" stroke-width="1.9" stroke-linecap="round" stroke-linejoin="round"><rect x="3.5" y="5" width="17" height="15.5" rx="2.5"/><path d="M3.5 10h17M8 3v4M16 3v4"/><path d="M8 14h.01M12 14h.01M16 14h.01M8 17h.01M12 17h.01"/></symbol>
    <symbol id="icon-bell" viewBox="0 0 24 24" fill="none" stroke="currentColor" stroke-width="1.9" stroke-linecap="round" stroke-linejoin="round"><path d="M6 16v-5a6 6 0 1 1 12 0v5l1.5 2h-15z"/><path d="M10 21a2 2 0 0 0 4 0"/></symbol>
    <symbol id="icon-user" viewBox="0 0 24 24" fill="none" stroke="currentColor" stroke-width="1.9" stroke-linecap="round" stroke-linejoin="round"><circle cx="12" cy="8" r="4"/><path d="M4 21a8 8 0 0 1 16 0"/></symbol>
    <symbol id="icon-info" viewBox="0 0 24 24" fill="none" stroke="currentColor" stroke-width="2.3" stroke-linecap="round"><path d="M12 10.8v6.4"/><circle cx="12" cy="6.9" r=".95" fill="currentColor" stroke="none"/></symbol>
    <symbol id="icon-info-circle" viewBox="0 0 24 24" fill="none" stroke="currentColor" stroke-width="1.9" stroke-linecap="round"><circle cx="12" cy="12" r="8.8"/><path d="M12 11v5.3"/><circle cx="12" cy="7.9" r=".9" fill="currentColor" stroke="none"/></symbol>
    <symbol id="icon-message" viewBox="0 0 24 24" fill="none" stroke="currentColor" stroke-width="1.9" stroke-linecap="round" stroke-linejoin="round"><path d="M4 5.5h16v10.5H9.5L4 20.5z"/><path d="M8 9.5h8M8 12.5h5"/></symbol>
    <symbol id="icon-flag" viewBox="0 0 24 24" fill="none" stroke="currentColor" stroke-width="1.9" stroke-linecap="round" stroke-linejoin="round"><path d="M5 21V4"/><path d="M5 4.5h11.5l-2.3 4 2.3 4H5"/></symbol>
    <symbol id="icon-sparkle" viewBox="0 0 24 24" fill="none" stroke="currentColor" stroke-width="1.8" stroke-linejoin="round"><path d="M11 3.5c.6 4.3 2.7 6.4 7 7-4.3.6-6.4 2.7-7 7-.6-4.3-2.7-6.4-7-7 4.3-.6 6.4-2.7 7-7z"/><path d="M18.5 15.5c.25 1.7 1.05 2.5 2.75 2.75-1.7.25-2.5 1.05-2.75 2.75-.25-1.7-1.05-2.5-2.75-2.75 1.7-.25 2.5-1.05 2.75-2.75z"/></symbol>
    <symbol id="icon-sliders" viewBox="0 0 24 24" fill="none" stroke="currentColor" stroke-width="1.9" stroke-linecap="round"><path d="M4 7h9M17 7h3M4 17h3M11 17h9"/><circle cx="15" cy="7" r="2.2"/><circle cx="9" cy="17" r="2.2"/></symbol>
    <symbol id="icon-cloud" viewBox="0 0 24 24" fill="none" stroke="currentColor" stroke-width="1.9" stroke-linecap="round" stroke-linejoin="round"><path d="M7 18.5a4.5 4.5 0 0 1-.6-8.96A6 6 0 0 1 17.9 11a3.75 3.75 0 0 1-.4 7.5z"/></symbol>
    <symbol id="icon-sun" viewBox="0 0 24 24" fill="none" stroke="currentColor" stroke-width="1.9" stroke-linecap="round"><circle cx="12" cy="12" r="4"/><path d="M12 2.5v2M12 19.5v2M2.5 12h2M19.5 12h2M5.3 5.3l1.4 1.4M17.3 17.3l1.4 1.4M18.7 5.3l-1.4 1.4M6.7 17.3l-1.4 1.4"/></symbol>
    <symbol id="icon-link" viewBox="0 0 24 24" fill="none" stroke="currentColor" stroke-width="1.9" stroke-linecap="round" stroke-linejoin="round"><path d="M10 14a4.5 4.5 0 0 0 6.4 0l3-3a4.5 4.5 0 0 0-6.4-6.4l-1.2 1.2"/><path d="M14 10a4.5 4.5 0 0 0-6.4 0l-3 3a4.5 4.5 0 0 0 6.4 6.4l1.2-1.2"/></symbol>
    <symbol id="icon-lock" viewBox="0 0 24 24" fill="none" stroke="currentColor" stroke-width="1.9" stroke-linecap="round" stroke-linejoin="round"><rect x="5" y="10.5" width="14" height="10" rx="2.2"/><path d="M8.5 10.5V7.5a3.5 3.5 0 0 1 7 0v3"/></symbol>
    <symbol id="icon-download" viewBox="0 0 24 24" fill="none" stroke="currentColor" stroke-width="1.9" stroke-linecap="round" stroke-linejoin="round"><path d="M12 4v11M7 10.5l5 5 5-5"/><path d="M4.5 19.5h15"/></symbol>
    <symbol id="icon-upload" viewBox="0 0 24 24" fill="none" stroke="currentColor" stroke-width="1.9" stroke-linecap="round" stroke-linejoin="round"><path d="M12 15.5v-11M7 9l5-5 5 5"/><path d="M4.5 19.5h15"/></symbol>
    <symbol id="icon-clock" viewBox="0 0 24 24" fill="none" stroke="currentColor" stroke-width="1.9" stroke-linecap="round" stroke-linejoin="round"><circle cx="12" cy="12" r="8.5"/><path d="M12 7.5V12l3 2"/></symbol>
    <symbol id="icon-lamp" viewBox="0 0 24 24" fill="none" stroke="currentColor" stroke-width="1.8" stroke-linecap="round" stroke-linejoin="round"><path d="M12 3.5c1.8 2.4 2.7 4 2.7 5.4a2.7 2.7 0 0 1-5.4 0c0-1.4.9-3 2.7-5.4z"/><path d="M4 13.5h16c-.9 3.3-4 5.5-8 5.5s-7.1-2.2-8-5.5z"/><path d="M9 21h6"/></symbol>
    <symbol id="icon-om" viewBox="0 0 24 24" fill="none" stroke="currentColor" stroke-width="1.8" stroke-linecap="round" stroke-linejoin="round"><path d="M5 9.5c1.2-1.6 4.8-1.8 5.4.7.5 2.1-1.8 3-3.3 2.9 2.8-.2 4.5 1.3 4.2 3.6-.4 2.8-4.3 3.6-6.8 1.8"/><path d="M12.2 13.2c1.1-2.5 5.6-2.4 5.9.9.3 3-2.2 4.6-4.3 4.2"/><path d="M14.8 6.5c1.4.9 2.8.9 4.2 0"/><circle cx="17.3" cy="3.9" r=".8" fill="currentColor" stroke="none"/></symbol>
    <symbol id="icon-google" viewBox="0 0 48 48"><path fill="#EA4335" d="M24 9.5c3.5 0 6.6 1.2 9 3.5l6.7-6.7C35.6 2.4 30.2 0 24 0 14.6 0 6.6 5.4 2.7 13.3l7.8 6C12.4 13.6 17.7 9.5 24 9.5z"/><path fill="#4285F4" d="M46.5 24.5c0-1.6-.1-3.1-.4-4.5H24v9h12.7c-.6 3-2.3 5.5-4.8 7.2l7.5 5.8c4.4-4 7.1-10 7.1-17.5z"/><path fill="#FBBC05" d="M10.5 28.7c-.5-1.5-.8-3-.8-4.7s.3-3.2.8-4.7l-7.8-6C1 16.6 0 20.2 0 24s1 7.4 2.7 10.7z"/><path fill="#34A853" d="M24 48c6.5 0 11.9-2.1 15.9-5.8l-7.5-5.8c-2.1 1.4-4.9 2.3-8.4 2.3-6.3 0-11.6-4.1-13.5-9.8l-7.8 6C6.6 42.6 14.6 48 24 48z"/></symbol>
  </defs>
</svg>
